<svg width="500" height="500" viewBox="0 0 500 500" fill="none" xmlns="http://www.w3.org/2000/svg">
<path d="M250 7.5C383.929 7.5 492.5 116.071 492.5 250C492.5 383.929 383.929 492.5 250 492.5C116.071 492.5 7.5 383.929 7.5 250C7.5 116.071 116.071 7.5 250 7.5ZM250 42.5C135.401 42.5 42.5 135.401 42.5 250C42.5 364.599 135.401 457.5 250 457.5C364.599 457.5 457.5 364.599 457.5 250C457.5 135.401 364.599 42.5 250 42.5ZM250 97.5C334.223 97.5 402.5 165.777 402.5 250C402.5 334.223 334.223 402.5 250 402.5C165.777 402.5 97.5 334.223 97.5 250C97.5 165.777 165.777 97.5 250 97.5Z" fill="white" stroke="black" stroke-width="15"/>
</svg>
