<svg width="530" height="530" viewBox="0 0 530 530" fill="none" xmlns="http://www.w3.org/2000/svg">
<path d="M515 265C515 403.071 403.071 515 265 515C126.929 515 15 403.071 15 265C15 126.929 126.929 15 265 15C403.071 15 515 126.929 515 265Z" fill="white"/>
<path d="M465 265C465 375.457 375.457 465 265 465C154.543 465 65 375.457 65 265C65 154.543 154.543 65 265 65C375.457 65 465 154.543 465 265Z" fill="black"/>
<path d="M265 7.5C407.213 7.5 522.5 122.787 522.5 265C522.5 407.213 407.213 522.5 265 522.5C122.787 522.5 7.5 407.213 7.5 265C7.5 122.787 122.787 7.5 265 7.5Z" stroke="black" stroke-width="15"/>
</svg>
