<svg width="297" height="500" viewBox="0 0 297 500" fill="none" xmlns="http://www.w3.org/2000/svg">
<mask id="path-1-inside-1_3_8" fill="white">
<path d="M250 0C266.066 0 281.777 1.51639 297 4.41211C181.397 26.4026 94 127.995 94 250C94 372.005 181.397 473.596 297 495.587C281.777 498.483 266.066 500 250 500C111.929 500 0 388.071 0 250C0 111.929 111.929 0 250 0Z"/>
</mask>
<path d="M250 0C266.066 0 281.777 1.51639 297 4.41211C181.397 26.4026 94 127.995 94 250C94 372.005 181.397 473.596 297 495.587C281.777 498.483 266.066 500 250 500C111.929 500 0 388.071 0 250C0 111.929 111.929 0 250 0Z" fill="white"/>
<path d="M297 4.41211L299.803 19.1479L299.803 -10.3237L297 4.41211ZM297 495.587L299.803 510.323L299.803 480.851L297 495.587ZM250 0V15C265.12 15 279.893 16.4269 294.197 19.1479L297 4.41211L299.803 -10.3237C283.662 -13.3941 267.012 -15 250 -15V0ZM297 4.41211L294.197 -10.3237C171.649 12.9878 79 120.658 79 250H94H109C109 135.332 191.144 39.8174 299.803 19.1479L297 4.41211ZM94 250H79C79 379.342 171.649 487.011 294.197 510.323L297 495.587L299.803 480.851C191.144 460.182 109 364.668 109 250H94ZM297 495.587L294.197 480.851C279.892 483.572 265.119 485 250 485V500V515C267.012 515 283.662 513.393 299.803 510.323L297 495.587ZM250 500V485C120.213 485 15 379.787 15 250H0H-15C-15 396.355 103.645 515 250 515V500ZM0 250H15C15 120.213 120.213 15 250 15V0V-15C103.645 -15 -15 103.645 -15 250H0Z" fill="black" mask="url(#path-1-inside-1_3_8)"/>
</svg>
