<svg width="500" height="500" viewBox="0 0 500 500" fill="none" xmlns="http://www.w3.org/2000/svg">
<mask id="path-1-inside-1_9_9" fill="white">
<path d="M250 0C388.071 0 500 111.929 500 250C500 388.071 388.071 500 250 500C111.929 500 0 388.071 0 250C0 111.929 111.929 0 250 0ZM250 70C150.589 70 70 150.589 70 250C70 349.411 150.589 430 250 430C349.411 430 430 349.411 430 250C430 150.589 349.411 70 250 70Z"/>
</mask>
<path d="M250 0C388.071 0 500 111.929 500 250C500 388.071 388.071 500 250 500C111.929 500 0 388.071 0 250C0 111.929 111.929 0 250 0ZM250 70C150.589 70 70 150.589 70 250C70 349.411 150.589 430 250 430C349.411 430 430 349.411 430 250C430 150.589 349.411 70 250 70Z" fill="#FFFF00"/>
<path d="M250 0V15C379.787 15 485 120.213 485 250H500H515C515 103.645 396.355 -15 250 -15V0ZM500 250H485C485 379.787 379.787 485 250 485V500V515C396.355 515 515 396.355 515 250H500ZM250 500V485C120.213 485 15 379.787 15 250H0H-15C-15 396.355 103.645 515 250 515V500ZM0 250H15C15 120.213 120.213 15 250 15V0V-15C103.645 -15 -15 103.645 -15 250H0ZM250 70V55C142.304 55 55 142.304 55 250H70H85C85 158.873 158.873 85 250 85V70ZM70 250H55C55 357.696 142.304 445 250 445V430V415C158.873 415 85 341.127 85 250H70ZM250 430V445C357.696 445 445 357.696 445 250H430H415C415 341.127 341.127 415 250 415V430ZM430 250H445C445 142.304 357.696 55 250 55V70V85C341.127 85 415 158.873 415 250H430Z" fill="black" mask="url(#path-1-inside-1_9_9)"/>
</svg>
