<svg width="297" height="500" viewBox="0 0 297 500" fill="none" xmlns="http://www.w3.org/2000/svg">
<mask id="path-1-inside-1_3_9" fill="white">
<path d="M47 0C30.9343 0 15.2227 1.51639 0 4.41211C115.603 26.4026 203 127.995 203 250C203 372.005 115.603 473.596 0 495.587C15.2227 498.483 30.9342 500 47 500C185.071 500 297 388.071 297 250C297 111.929 185.071 0 47 0Z"/>
</mask>
<path d="M47 0C30.9343 0 15.2227 1.51639 0 4.41211C115.603 26.4026 203 127.995 203 250C203 372.005 115.603 473.596 0 495.587C15.2227 498.483 30.9342 500 47 500C185.071 500 297 388.071 297 250C297 111.929 185.071 0 47 0Z" fill="white"/>
<path d="M0 4.41211L-2.80309 19.1479L-2.80309 -10.3237L0 4.41211ZM0 495.587L-2.8031 510.323L-2.8031 480.851L0 495.587ZM47 0V15C31.8802 15 17.107 16.4269 2.80309 19.1479L0 4.41211L-2.80309 -10.3237C13.3383 -13.3941 29.9883 -15 47 -15V0ZM0 4.41211L2.80309 -10.3237C125.351 12.9878 218 120.658 218 250H203H188C188 135.332 105.856 39.8174 -2.80309 19.1479L0 4.41211ZM203 250H218C218 379.342 125.351 487.011 2.8031 510.323L0 495.587L-2.8031 480.851C105.856 460.182 188 364.668 188 250H203ZM0 495.587L2.8031 480.851C17.1077 483.572 31.8808 485 47 485V500V515C29.9877 515 13.3378 513.393 -2.8031 510.323L0 495.587ZM47 500V485C176.787 485 282 379.787 282 250H297H312C312 396.355 193.355 515 47 515V500ZM297 250H282C282 120.213 176.787 15 47 15V0V-15C193.355 -15 312 103.645 312 250H297Z" fill="black" mask="url(#path-1-inside-1_3_9)"/>
</svg>
